<svg xmlns="http://www.w3.org/2000/svg" viewBox="0 0 100 100" width="100" height="100">
  <defs>
    <radialGradient id="glow-lg" cx="50%" cy="50%" r="50%">
      <stop offset="0%" stop-color="#60a5fa"/>
      <stop offset="100%" stop-color="#3b82f6"/>
    </radialGradient>
    <radialGradient id="glow-sm" cx="50%" cy="50%" r="50%">
      <stop offset="0%" stop-color="#93c5fd"/>
      <stop offset="80%" stop-color="#3b82f6"/>
    </radialGradient>
    <filter id="bloom">
      <feGaussianBlur in="SourceGraphic" stdDeviation="3.5"/>
    </filter>
  </defs>

  <!-- Bloom layer -->
  <g filter="url(#bloom)" opacity="0.3">
    <circle cx="50" cy="14" r="7" fill="#3b82f6"/>
    <circle cx="84" cy="38" r="4.5" fill="#3b82f6"/>
    <circle cx="18" cy="36" r="5.5" fill="#3b82f6"/>
    <circle cx="68" cy="72" r="5" fill="#3b82f6"/>
    <circle cx="32" cy="74" r="4.5" fill="#3b82f6"/>
  </g>

  <!-- Edges -->
  <g stroke="#3b82f6" fill="none" stroke-linecap="round">
    <!-- Outer structure -->
    <line x1="50" y1="14" x2="84" y2="38" stroke-width="1.4" opacity="0.5"/>
    <line x1="50" y1="14" x2="18" y2="36" stroke-width="1.4" opacity="0.52"/>
    <line x1="84" y1="38" x2="68" y2="72" stroke-width="1.2" opacity="0.42"/>
    <line x1="18" y1="36" x2="32" y2="74" stroke-width="1.2" opacity="0.44"/>
    <line x1="68" y1="72" x2="32" y2="74" stroke-width="1.2" opacity="0.38"/>

    <!-- Inner spokes through center -->
    <line x1="50" y1="14" x2="50" y2="46" stroke-width="1" opacity="0.32"/>
    <line x1="50" y1="46" x2="68" y2="72" stroke-width="0.8" opacity="0.22"/>
    <line x1="50" y1="46" x2="32" y2="74" stroke-width="0.8" opacity="0.22"/>

    <!-- Cross-connections -->
    <line x1="50" y1="14" x2="68" y2="72" stroke-width="0.6" opacity="0.14"/>
    <line x1="84" y1="38" x2="32" y2="74" stroke-width="0.6" opacity="0.11"/>
    <line x1="18" y1="36" x2="68" y2="72" stroke-width="0.6" opacity="0.12"/>
  </g>

  <!-- Nodes -->
  <circle cx="50" cy="14" r="7" fill="url(#glow-lg)"/>
  <circle cx="84" cy="38" r="4.5" fill="url(#glow-lg)"/>
  <circle cx="18" cy="36" r="5.5" fill="url(#glow-lg)"/>
  <circle cx="68" cy="72" r="5" fill="url(#glow-lg)"/>
  <circle cx="32" cy="74" r="4.5" fill="url(#glow-lg)"/>

  <!-- Center hub node -->
  <circle cx="50" cy="46" r="3" fill="url(#glow-sm)" opacity="0.65"/>
</svg>
